<svg version="1.1" viewBox="0.0 0.0 545.3727034120735 231.1811023622047" fill="none" stroke="none" stroke-linecap="square" stroke-miterlimit="10" xmlns:xlink="http://www.w3.org/1999/xlink" xmlns="http://www.w3.org/2000/svg"><clipPath id="p.0"><path d="m0 0l545.3727 0l0 231.1811l-545.3727 0l0 -231.1811z" clip-rule="nonzero"/></clipPath><g clip-path="url(#p.0)"><path fill="#000000" fill-opacity="0.0" d="m0 0l545.3727 0l0 231.1811l-545.3727 0z" fill-rule="evenodd"/><path fill="#000000" fill-opacity="0.0" d="m431.11618 148.7357c1.9898376 4.768387 15.687256 20.184525 11.939178 28.61029c-3.7480774 8.425766 -18.52069 18.491974 -34.427673 21.94432c-15.906982 3.4523468 -47.602997 2.1330414 -61.01425 -1.2302246c-13.411255 -3.3632812 -16.033173 -12.591049 -19.453247 -18.949432c-3.4200745 -6.358383 -0.8893738 -16.000702 -1.0672302 -19.200851" fill-rule="evenodd"/><path stroke="#999999" stroke-width="12.0" stroke-linejoin="round" stroke-linecap="butt" d="m431.11618 148.7357c1.9898376 4.768387 15.687256 20.184525 11.939178 28.61029c-3.7480774 8.425766 -18.52069 18.491974 -34.427673 21.94432c-15.906982 3.4523468 -47.602997 2.1330414 -61.01425 -1.2302246c-13.411255 -3.3632812 -16.033173 -12.591049 -19.453247 -18.949432c-3.4200745 -6.358383 -0.8893738 -16.000702 -1.0672302 -19.200851" fill-rule="evenodd"/><path fill="#000000" fill-opacity="0.0" d="m9.360143E-4 126.73685l177.13286 -41.391624l32.82428 140.47943l-177.13284 41.391617z" fill-rule="evenodd"/><path fill="#3d85c6" d="m62.626556 216.48537q-5.5535164 1.2977142 -12.730801 1.9639893q-4.540371 0.48330688 -6.9526367 -1.1192017q-2.415821 -1.6177216 -3.1536026 -5.873993q-1.5205154 -9.528992 -2.2857437 -23.791504q-0.75001144 -14.266083 -0.22264862 -27.80371q0.13589096 -3.4013977 2.4076195 -5.215912q2.2869415 -1.8180847 5.8929214 -2.6607056q7.653206 -1.7883759 8.851295 3.3391418q0.3804016 1.6280212 0.18476868 3.7436676q-0.66807556 7.922333 -0.17560196 20.948868q0.5076904 13.02298 1.8643913 22.606293q0.79374695 -0.10525513 4.2475777 -0.912323q15.44334 -3.6087341 20.836605 -14.657028q5.408478 -11.051834 1.7040024 -26.906052q-2.4032898 -10.285461 -9.456787 -14.445847q-7.0570526 -4.1756134 -17.875 -1.6477203q-7.166317 1.6745911 -13.715183 5.5796967q-6.5488663 3.9051056 -11.33688 8.891022q-1.4151306 1.5662079 -3.4235249 2.0355225q-2.6170006 0.6115265 -4.489628 -1.0849915q-1.8726273 -1.696518 -2.4734497 -4.2678833q-0.6363735 -2.7235107 -0.09989166 -4.822525q0.53292847 -2.1142273 2.3754997 -4.1172943q5.639761 -6.14769 14.06563 -10.603729q8.422314 -4.4712524 16.729767 -6.412506q11.837357 -2.7661057 21.612923 -0.6217346q9.772003 2.1291504 16.439903 9.171646q6.683113 7.038925 9.342377 18.419876q3.4093933 14.591354 0.10674286 26.96431q-3.2909927 12.354172 -13.10479 21.033707q-9.813805 8.67952 -25.165855 12.266922zm82.47589 -56.306595q2.860443 -0.6684265 5.356888 0.8823242q2.4928894 1.5355377 3.1825867 4.4872894q0.37329102 1.59758 0.07058716 3.5296478q-0.7599945 4.3013916 -3.2883606 7.764435q-2.5319214 3.4478302 -6.51828 4.3793335q-3.4386292 0.80352783 -6.3997803 -1.0879211q-2.945938 -1.8950043 -3.8738403 -5.86615q-0.43371582 -1.8562622 -0.7443085 -4.078247q-0.16326904 -1.4541168 -0.26637268 -1.8953552q-0.0035552979 -0.0152282715 0.3574829 -0.324234q0.3574829 -0.32421875 0.5707855 0.5886841q-0.30429077 0.071121216 -1.5875854 3.1629791q-1.2680817 3.0883179 -2.269638 8.553329q-1.0015717 5.4650116 -1.0768433 11.3233185q0.029510498 5.208023 -1.2626114 7.6440735q-1.2956772 2.4208221 -5.1755295 3.3274536q-4.8840485 1.1412811 -7.7084427 -2.9804077q-2.8091736 -4.1252594 -4.8142853 -12.706604q-2.9116821 -12.461227 -1.9714966 -24.506775q0.24538422 -3.6195374 2.3181686 -5.804764q2.0879974 -2.1887817 6.1200027 -3.1309662q2.4344254 -0.5688629 4.074394 -0.0053710938q1.6551895 0.55992126 2.213356 2.9487152q0.4123993 1.7649536 0.22805023 7.568527q-0.056114197 3.8801727 0.036071777 6.7469025q0.092185974 2.8667145 -1.3281708 7.2261505q-0.7317352 -9.312149 2.0630722 -15.54921q2.7912521 -6.2522736 6.2650986 -9.583237q3.4890594 -3.3345184 7.0189667 -4.159378q3.5603333 -0.8319702 6.051239 0.83239746q2.4909058 1.6643677 3.3690338 5.422516q0.46217346 1.9779816 -0.7151642 6.5533905l-0.29507446 -1.2628479zm21.296371 32.057556q-4.944916 1.1555023 -8.268814 -1.0523224q-3.3239136 -2.2078247 -4.3584595 -6.6354523q-1.1625366 -4.975357 1.0487213 -8.765442q2.2077026 -3.8052979 7.350418 -5.0070343q4.8840485 -1.1412811 8.177948 0.80078125q3.2903442 1.9268341 4.4031067 6.6891937q1.1874237 5.0818634 -1.0704803 8.947037q-2.2462463 3.8463898 -7.28244 5.023239z" fill-rule="nonzero"/><path fill="#000000" fill-opacity="0.0" d="m177.21883 88.38559l97.752945 -22.846817l32.82428 140.47943l-97.752945 22.846817z" fill-rule="evenodd"/><path fill="#3d85c6" d="m222.17949 182.261q-4.8840027 1.1414948 -7.7083893 -2.9801178q-2.8091583 -4.125183 -4.81427 -12.706543q-2.9116669 -12.461227 -1.9715271 -24.506912q0.24537659 -3.6195831 2.3181305 -5.8049164q2.0879822 -2.1888885 6.1199493 -3.1312408q2.4343872 -0.5689697 4.074356 -0.0055389404q1.6551819 0.5598755 2.2133331 2.9486542q0.4123993 1.7649689 0.22807312 7.5685883q-0.056106567 3.8802185 0.025421143 6.7013245q0.08151245 2.821106 -1.3388062 7.1806335q-1.1367188 -8.367126 1.3081055 -14.522568q2.456482 -6.1742096 5.894165 -9.865967q3.4493408 -3.7105255 7.3139496 -4.6137543q4.1384735 -0.967247 6.530945 0.6879425q2.3924866 1.6551971 3.2848358 5.4741974q0.7501373 3.2104034 0.8085785 11.701172q0.044708252 3.4875946 -1.8557129 5.311722q-0.6891022 -9.129623 2.0778046 -15.280106q2.7785645 -6.1692657 6.2665863 -9.439537q3.5032349 -3.2738266 7.109192 -4.1166077q3.7885132 -0.8854599 6.397583 0.7351608q2.6090393 1.6206207 3.4942627 5.409195q0.6043701 2.5865784 1.161499 9.709213q0.39437866 5.876953 1.0046387 11.029541q0.62545776 5.1490173 2.0617676 11.295944q1.0132141 4.336334 -0.48223877 6.9322968q-1.4954224 2.5959625 -5.618683 3.5596466q-3.9710999 0.9281311 -6.415344 -0.8112335q-2.447815 -1.7545929 -3.3614807 -5.6648865q-0.91012573 -3.8950806 -1.6270752 -12.937973q-0.60647583 -7.6085205 -1.0508575 -9.5104065q0.80625916 -0.66981506 1.0195465 0.24308777q-0.2130127 0.04978943 -1.4962769 3.141739q-1.2680511 3.088379 -2.2848053 8.557037q-1.0015564 5.465103 -1.0615997 11.319916q0.0026397705 5.2304077 -1.3386536 7.6619873q-1.3413086 2.4315643 -5.190689 3.3312378q-4.260193 0.995697 -7.049286 -2.2195435q-2.7926483 -3.2304535 -3.8911896 -7.931946q-0.86035156 -3.6820679 -1.505188 -10.768143q-0.63487244 -6.0133057 -1.0437164 -7.7630615q0.8062439 -0.66981506 1.0195618 0.24310303q-0.33473206 0.07823181 -1.4840546 3.331421q-1.1493225 3.253189 -1.9246216 8.793777q-0.7601013 5.5370483 -0.7833252 10.725357q-0.003479004 5.135559 -1.3305511 7.6279907q-1.3154144 2.4736633 -5.103943 3.3591156z" fill-rule="nonzero"/><path fill="#000000" fill-opacity="0.0" d="m447.47385 22.800776l97.50308 -22.801386l32.82428 140.47943l-97.50308 22.801392z" fill-rule="evenodd"/><path fill="#3d85c6" d="m486.31598 65.15049q-4.686096 1.0958481 -7.7931824 -0.6647644q-3.1106262 -1.7758293 -4.0740967 -5.8991394q-0.9740906 -4.1689568 1.5693665 -7.6360893q2.5586548 -3.470684 7.1078186 -4.5345154q4.1231384 -0.9642067 7.4193115 0.57567215q3.2926636 1.524662 4.2347717 5.5566826q1.0772095 4.610195 -1.3105469 8.056961q-2.3912964 3.431553 -7.1534424 4.5451927zm10.986511 50.384407q-7.150818 1.6722412 -11.511963 -2.571167q-4.364685 -4.2586136 -6.152954 -11.91185q-1.0203247 -4.3667526 -1.4962463 -11.34803q-0.4794922 -6.996498 -0.11477661 -13.195526q0.16513062 -3.8256073 1.7114258 -5.79187q1.5579529 -1.9850311 5.3311768 -2.8674088q6.7095947 -1.5690613 7.9076843 3.5584564q0.5901489 2.5257187 0.81674194 11.667404q0.15097046 10.603569 0.95443726 14.042191q0.54748535 2.3431396 1.0903931 3.018509q0.5545654 0.6565933 1.132721 0.5213928q0.92807007 -0.21704102 2.6461487 -2.7529984q1.7297058 -2.554741 4.6903076 -8.494308q1.2535095 -2.3952408 3.5509033 -2.9324875q2.2973938 -0.53725433 3.8463135 1.0100632q1.5641785 1.5437546 2.1543274 4.0694733q1.045227 4.4732666 -0.59051514 7.56765q-7.0047607 14.314865 -15.9661255 16.410507zm33.22412 -25.741707q1.2293701 -1.8119125 3.0247192 -2.2317505q2.251709 -0.5265808 3.828125 1.2068787q1.572815 1.7182388 2.106079 4.000511q1.1305542 4.8384247 -1.701416 8.581627q-4.355957 5.7363358 -11.23291 7.344536q-10.011108 2.3411407 -16.435425 -4.757477q-6.4242554 -7.0986176 -9.339508 -19.575066q-2.709015 -11.593956 -3.1896973 -27.110897q-0.46548462 -15.520493 3.0402832 -28.054312q3.5057373 -12.533817 12.604034 -14.661477q5.5684814 -1.3022137 9.69989 2.8505087q4.1465454 4.149164 6.0876465 12.456648q2.6948242 11.533098 -0.060058594 27.96715q-2.743225 16.41528 -9.72406 32.618046q0.97247314 2.30793 2.4213257 3.220749q1.4604492 0.8940506 3.5448608 0.40660858q1.1715088 -0.27396393 2.6638184 -1.4413071q1.5039062 -1.1861267 2.6622925 -2.8209763zm-16.278015 -61.631195q-0.77593994 0.18145561 -1.5946655 7.8024693q-0.80703735 7.6022415 -0.17840576 19.425968q0.62506104 11.80851 1.310791 15.017929q1.725769 -5.249649 3.0534668 -16.872948q1.3240967 -11.638515 -0.71655273 -20.372025q-1.2052002 -5.1579437 -1.8746338 -5.0013943z" fill-rule="nonzero"/><path fill="#cc0000" d="m317.4702 113.98495c6.5498657 -39.891174 70.093445 -14.716301 9.970612 47.42724c-80.06406 -32.710938 -32.030304 -81.31176 -9.970612 -47.42724z" fill-rule="evenodd"/><path stroke="#cc0000" stroke-width="12.0" stroke-linejoin="round" stroke-linecap="butt" d="m317.4702 113.98495c6.5498657 -39.891174 70.093445 -14.716301 9.970612 47.42724c-80.06406 -32.710938 -32.030304 -81.31176 -9.970612 -47.42724z" fill-rule="evenodd"/><path fill="#3d85c6" d="m300.84314 131.29988l0 0c-0.55752563 -10.030426 7.9595337 -18.660225 19.023407 -19.275192l0 0c11.063843 -0.61496735 20.484863 7.017769 21.042358 17.048203l0 0c0.55752563 10.030426 -7.9595337 18.660217 -19.023407 19.275177l0 0c-11.063843 0.614975 -20.484863 -7.017761 -21.042358 -17.048187z" fill-rule="evenodd"/><path stroke="#3d85c6" stroke-width="1.0" stroke-linejoin="round" stroke-linecap="butt" d="m300.84314 131.29988l0 0c-0.55752563 -10.030426 7.9595337 -18.660225 19.023407 -19.275192l0 0c11.063843 -0.61496735 20.484863 7.017769 21.042358 17.048203l0 0c0.55752563 10.030426 -7.9595337 18.660217 -19.023407 19.275177l0 0c-11.063843 0.614975 -20.484863 -7.017761 -21.042358 -17.048187z" fill-rule="evenodd"/><path fill="#000000" fill-opacity="0.0" d="m385.70407 107.18519c7.1114807 6.6077805 32.694427 43.087868 42.669006 39.646645c9.974579 -3.441208 14.315308 -50.24492 17.178375 -60.2939" fill-rule="evenodd"/><path stroke="#3d85c6" stroke-width="12.0" stroke-linejoin="round" stroke-linecap="butt" d="m385.70407 107.18519c7.1114807 6.6077805 32.694427 43.087868 42.669006 39.646645c9.974579 -3.441208 14.315308 -50.24492 17.178375 -60.2939" fill-rule="evenodd"/><path fill="#000000" fill-opacity="0.0" d="m367.35562 98.471214l0 0c-2.6026 -8.73568 1.5350342 -18.037018 9.24173 -20.775116l0 0c3.7008667 -1.314888 7.746643 -0.9094467 11.247314 1.1271133c3.5006714 2.0365677 6.169464 5.53743 7.4193115 9.732452l0 0c2.6026 8.73568 -1.5350342 18.03701 -9.24173 20.775116l0 0c-7.706665 2.7381058 -16.063995 -2.1238937 -18.666626 -10.859566z" fill-rule="evenodd"/><path stroke="#999999" stroke-width="12.0" stroke-linejoin="round" stroke-linecap="butt" d="m367.35562 98.471214l0 0c-2.6026 -8.73568 1.5350342 -18.037018 9.24173 -20.775116l0 0c3.7008667 -1.314888 7.746643 -0.9094467 11.247314 1.1271133c3.5006714 2.0365677 6.169464 5.53743 7.4193115 9.732452l0 0c2.6026 8.73568 -1.5350342 18.03701 -9.24173 20.775116l0 0c-7.706665 2.7381058 -16.063995 -2.1238937 -18.666626 -10.859566z" fill-rule="evenodd"/><path fill="#000000" fill-opacity="0.0" d="m429.56876 76.367516l0 0c-2.6026 -8.73568 1.5350342 -18.037014 9.241699 -20.775116l0 0c3.7008972 -1.3148842 7.7466736 -0.90945053 11.247345 1.1271133c3.5006714 2.0365639 6.169464 5.5374336 7.419281 9.732452l0 0c2.6026306 8.73568 -1.5350037 18.03701 -9.241699 20.775116l0 0c-7.706665 2.7381058 -16.063995 -2.1238937 -18.666626 -10.859566z" fill-rule="evenodd"/><path stroke="#999999" stroke-width="12.0" stroke-linejoin="round" stroke-linecap="butt" d="m429.56876 76.367516l0 0c-2.6026 -8.73568 1.5350342 -18.037014 9.241699 -20.775116l0 0c3.7008972 -1.3148842 7.7466736 -0.90945053 11.247345 1.1271133c3.5006714 2.0365639 6.169464 5.5374336 7.419281 9.732452l0 0c2.6026306 8.73568 -1.5350037 18.03701 -9.241699 20.775116l0 0c-7.706665 2.7381058 -16.063995 -2.1238937 -18.666626 -10.859566z" fill-rule="evenodd"/><path fill="#000000" fill-opacity="0.0" d="m326.91602 62.55118l-13.795288 21.322834" fill-rule="evenodd"/><path stroke="#6aa84f" stroke-width="12.0" stroke-linejoin="round" stroke-linecap="butt" d="m326.91602 62.55118l-13.795288 21.322834" fill-rule="evenodd"/></g></svg>